<svg width="160" height="50" viewBox="0 0 160 50" xmlns="http://www.w3.org/2000/svg">
  <!-- Black Background for Icon -->
  <rect width="50" height="50" fill="#181717"/>
  <!-- GitHub Icon -->
  <path fill="#fff" d="M25 15c-6.9 0-12.5 5.6-12.5 12.5 0 5.5 3.6 10.2 8.6 11.8.6.1.8-.3.8-.6v-2.1c-3.4.7-4.1-1.6-4.1-1.6-.6-1.4-1.4-1.7-1.4-1.7-1.1-.8.1-.8.1-.8 1.2.1 1.9 1.3 1.9 1.3 1.1 1.9 2.9 1.4 3.6 1.1.1-.8.4-1.4.8-1.7-2.7-.3-5.5-1.4-5.5-6.1 0-1.3.5-2.5 1.3-3.3-.1-.3-.6-1.5.1-3.2 0 0 1-.3 3.3 1.3 1-.3 2-.4 3-.4s2 .1 3 .4c2.3-1.6 3.3-1.3 3.3-1.3.7 1.7.3 2.9.1 3.2.8.8 1.3 2 1.3 3.3 0 4.7-2.9 5.8-5.6 6.1.5.4.9 1.1.9 2.1v3.1c0 .3.2.7.8.6 5-1.6 8.6-6.3 8.6-11.8C37.5 20.6 31.9 15 25 15z"/>
  <!-- White Background for Text -->
  <rect x="50" width="110" height="50" fill="#fff"/>
  <!-- GitHub Text -->
  <text x="105" y="30" font-family="Arial, sans-serif" font-size="16" font-weight="600" text-anchor="middle" fill="#181717">GitHub</text>
</svg>