<?xml version="1.0" encoding="utf-8"?>
<!DOCTYPE svg PUBLIC "-//W3C//DTD SVG 1.0//EN" "http://www.w3.org/TR/2001/REC-SVG-20010904/DTD/svg10.dtd">
<svg version="1.0" xmlns="http://www.w3.org/2000/svg" width="200px" height="200px" viewBox="0 0 200 200" preserveAspectRatio="xMidYMid meet">
 <g fill="#ffffff">
  <path d="M0 100 l0 -100 100 0 100 0 0 100 0 100 -100 0 -100 0 0 -100z m103.90 87.10 c0.10 -0.35 -0.15 -0.95 -0.60 -1.25 -0.65 -0.50 -0.80 -1.25 -0.70 -3.35 l0.15 -2.75 1.90 -0.15 c1.25 -0.10 2.25 0.10 2.85 0.65 0.80 0.70 0.95 0.60 2.20 -2.20 1.60 -3.60 2.80 -6.95 2.80 -7.85 0 -0.40 -0.50 -0.70 -1.25 -0.70 -1.30 0 -2.25 -1.25 -2.25 -2.95 0 -0.80 -0.30 -1.05 -1.25 -1.05 -1.15 0 -1.25 -0.20 -1.25 -2.15 0 -1.90 0.30 -2.45 2.95 -5.40 1.65 -1.80 3.05 -3.80 3.15 -4.50 0.10 -0.95 0.50 -1.25 1.90 -1.35 1.50 -0.15 1.95 0.10 3.25 1.60 1.20 1.45 2.05 1.90 4.25 2.35 5.50 1.10 9.20 -1.20 14.10 -8.80 1.60 -2.45 2.90 -4.65 2.90 -4.90 0 -0.80 -3.55 0.15 -10.25 2.75 -3.75 1.45 -7.70 2.60 -9.35 2.75 l-2.90 0.30 0 -2.25 c0 -1.65 0.30 -2.50 1.15 -3.30 1.85 -1.75 8.40 -4.45 17.25 -7.15 4.60 -1.40 9.75 -3.20 11.45 -4 6.25 -3 11.10 -8.90 12.85 -15.70 1.05 -4.15 1.80 -11.85 1.35 -13.60 l-0.40 -1.40 -0.25 1.75 c-0.65 3.60 -1.25 4.50 -3.10 4.50 -1.55 0 -1.95 -0.35 -3.95 -3.10 -1.25 -1.75 -3.20 -4.05 -4.40 -5.15 l-2.10 -2 1.75 2.25 c0.95 1.25 2.25 3.15 2.90 4.25 3.50 6.05 3.30 14.95 -0.45 20.10 -1.80 2.50 -6.15 4.80 -8.65 4.55 l-1.65 -0.15 0.10 -6.25 c0.05 -6.10 0.05 -6.15 -0.30 -1.90 -0.75 8.25 -4.60 13.40 -11.90 15.85 -5.45 1.85 -8.65 1.25 -8.65 -1.55 0 -1.50 -0.10 -1.40 -2 1.55 -2.40 3.65 -6.40 7.85 -8.25 8.55 -2.15 0.80 -18.05 0.65 -19.70 -0.20 -1.85 -1 -6.70 -6.25 -8.40 -9.20 l-1.40 -2.35 -0.15 1.85 c-0.15 1.70 -0.30 1.90 -1.95 2.20 -0.95 0.20 -3.05 0.05 -4.60 -0.30 -8.20 -1.80 -12.95 -7.20 -14.05 -16 -0.35 -2.90 -0.40 -2.70 -0.35 2.25 0.10 5.50 0.10 5.50 -1.15 5.65 -3.55 0.55 -9.10 -3.45 -10.75 -7.70 -0.70 -1.80 -0.80 -3.40 -0.65 -7.85 0.20 -6.20 0.75 -7.65 4.55 -12.85 l2 -2.75 -2.20 2.10 c-1.20 1.15 -3.10 3.45 -4.20 5.10 -1.85 2.75 -2.15 3 -3.80 3.05 -2.05 0 -2.55 -0.75 -3.45 -5 -0.35 -1.80 -0.45 -1.15 -0.30 3.25 0.35 10.05 2.50 16.40 7.30 21.25 3.55 3.65 7.80 5.70 19.20 9.25 14.65 4.60 17.80 6.40 17.80 10.25 l0 2 -2.25 0 c-1.25 0 -3.55 -0.50 -5.15 -1.05 -6.80 -2.55 -13.90 -4.90 -14.75 -4.95 -0.85 0 -0.80 0.25 0.40 2.40 2.35 4.05 6.20 8.75 8.30 10.20 2.65 1.75 4.70 2.15 8.15 1.40 2.30 -0.45 2.90 -0.85 3.80 -2.30 0.95 -1.50 1.30 -1.70 3.30 -1.70 2.10 0 2.20 0.05 2.20 1.45 0 1.10 0.75 2.25 3 4.65 2.65 2.80 3 3.35 3 5.30 0 1.90 -0.10 2.10 -1.25 2.10 -0.95 0 -1.25 0.25 -1.25 1.05 0 1.85 -0.95 2.95 -2.50 2.95 -0.85 0 -1.50 0.10 -1.50 0.20 0 0.60 2.75 7.75 3.60 9.45 0.90 1.85 1 1.90 1.90 1.10 0.60 -0.55 1.55 -0.75 2.85 -0.65 l1.90 0.15 0.15 2.75 c0.10 2.10 -0.05 2.85 -0.70 3.35 -1.15 0.85 -0.60 1.95 1.65 3.10 l1.90 0.95 1.95 -1.05 c1.05 -0.60 2.05 -1.40 2.20 -1.75z m-36.40 -99.85 c1.40 -0.70 2.50 -1.30 2.50 -1.40 0 -0.05 -1.80 0 -4.05 0.10 -3.80 0.15 -4.25 0.05 -7.65 -1.65 -4.50 -2.20 -12.45 -9.40 -13.30 -12.05 -0.40 -1.15 -0.90 -1.75 -1.50 -1.75 -2.05 0 -5.75 -6.40 -8.05 -14 -0.85 -2.85 -1.15 -5.05 -1.15 -8.95 l-0.05 -5.15 1.95 -1.70 1.95 -1.70 -1.75 0 c-1.05 0 -2.05 -0.35 -2.45 -0.85 -0.80 -0.90 -0.90 -5.60 -0.35 -10.40 l0.40 -3 -1.55 3.50 c-1.70 3.90 -2.95 9.55 -2.95 13.40 0 3.95 1.35 11.55 3 16.90 4.45 14.40 12.40 23.10 26.20 28.50 4.40 1.75 5.70 1.80 8.80 0.20z m71.60 0.20 c17.60 -6.05 27.50 -19.55 30 -41.10 0.75 -6.10 0.15 -10.75 -2.10 -17 -0.90 -2.40 -1.70 -4.30 -1.80 -4.20 -0.10 0.10 0.05 2.05 0.35 4.40 0.55 4.35 0.30 7.65 -0.65 8.80 -0.30 0.35 -1.25 0.65 -2.15 0.65 l-1.65 0 1.95 1.95 c1.90 1.90 1.95 2 1.95 5.70 0 9.45 -5.40 23.35 -9.05 23.35 -0.60 0 -1.25 0.80 -1.90 2.20 -1.20 2.75 -4.25 6.10 -8.25 9.15 -4.45 3.35 -6.85 4.30 -11.80 4.65 l-4.25 0.25 2 1.10 c2.50 1.40 3.50 1.40 7.35 0.10z"/>
 </g>
 <g fill="#1c74ad">
  <path d="M95.45 193.55 c-2.25 -1.40 -4.45 -4.85 -4.45 -6.85 0 -0.45 -1 -3 -2.20 -5.65 -1.20 -2.65 -2.70 -6.50 -3.30 -8.55 -0.60 -2.05 -1.50 -5.25 -2.05 -7.10 -1.20 -4.10 -1.25 -7.40 -0.20 -7.40 0.55 0 0.75 0.55 0.75 2.15 0 2.15 1.90 6.90 3 7.60 1.75 1.05 2.70 -3.65 1.15 -5.40 -0.85 -0.95 -0.85 -1 0.15 -0.45 0.55 0.30 1.30 0.90 1.70 1.30 0.35 0.45 0.80 0.80 1.05 0.80 1.10 0 0.20 -1.50 -2.85 -4.75 -2.60 -2.75 -3.20 -3.70 -2.95 -4.60 0.45 -1.80 -1 -1.45 -2.25 0.55 -0.85 1.40 -1.50 1.85 -3.55 2.25 -5.20 1.10 -9.20 0.50 -12.25 -1.90 -1.95 -1.50 -5.10 -5.70 -7.50 -9.95 -2.60 -4.55 -2.75 -5.60 -0.80 -5.60 2.15 0 8.80 1.85 14.35 4.05 7.95 3.10 9.95 3.10 7 0.15 -1.85 -1.85 -6.45 -3.80 -16.55 -6.95 -11.40 -3.55 -15.65 -5.60 -19.20 -9.25 -4.80 -4.85 -6.90 -11.05 -7.35 -21.55 -0.30 -6.70 0.30 -11.15 2.20 -15.45 1.90 -4.40 2.85 -4 1.55 0.65 -0.95 3.20 -1 4.05 -0.50 7.40 0.50 3.60 1.45 6.45 2.05 6.45 0.15 0 1.20 -1.40 2.30 -3.05 3.90 -5.95 9.80 -10.15 15 -10.70 l2.50 -0.30 -1.75 1.40 c-4.15 3.30 -9.35 9.05 -10.95 12.15 -1.50 2.75 -1.80 3.90 -1.95 7.35 -0.25 5 0.65 7.70 3.55 10.55 2 1.95 5.80 4.05 5.90 3.25 0.05 -0.25 0.10 -3.10 0.15 -6.40 0.10 -4.55 0.35 -6.65 1.10 -8.70 1.70 -4.55 2.20 -3.90 2.20 2.85 0 4.65 0.25 6.75 1.05 9.35 1.65 5.35 6.10 9.45 11.95 11 4.15 1.10 4.55 0.75 4.50 -3.45 -0.05 -1.95 -0.05 -3.95 -0.05 -4.40 0.10 -1.65 0.90 -0.90 2.05 1.75 2.50 5.90 9.15 13.85 12.15 14.60 0.65 0.20 4.45 0.25 8.45 0.15 l7.20 -0.15 2.05 -1.65 c2.80 -2.20 6.30 -6.95 8.70 -11.70 1.10 -2.15 2.20 -3.90 2.50 -3.90 0.35 0 0.45 1.30 0.20 4.25 -0.35 4.15 -0.35 4.25 0.85 4.75 0.95 0.45 1.85 0.35 4.45 -0.50 4.80 -1.60 8.05 -4.30 10 -8.25 1.65 -3.40 1.70 -3.75 2.10 -14.25 0.05 -1.80 0.35 -3.25 0.60 -3.25 0.30 0 1 1.35 1.60 3 0.95 2.55 1.10 3.85 1.05 9 -0.10 5.70 -0.05 6 0.85 5.85 2.10 -0.35 5.40 -2.75 6.75 -4.95 3.15 -4.95 3.10 -10.80 -0.15 -16.60 -1.80 -3.15 -7.60 -9.50 -10.15 -11.10 -2.35 -1.45 -2.20 -2.15 0.45 -1.75 4.95 0.80 10.50 4.75 14.70 10.65 1.25 1.75 2.45 3.05 2.70 2.80 0.70 -0.70 1.95 -6.25 1.95 -8.70 0 -1.25 -0.35 -3.40 -0.75 -4.75 -0.85 -2.90 -0.95 -3.70 -0.25 -3.70 1.25 0 3.80 7.60 4.25 12.75 0.30 3.95 -0.45 12 -1.55 16.50 -1.75 6.80 -6.60 12.70 -12.85 15.70 -1.70 0.80 -6.85 2.60 -11.45 4 -11.95 3.65 -18.40 6.75 -18.40 8.95 0 0.95 1.80 0.50 9.55 -2.45 6.95 -2.65 13.10 -4 14 -3.10 0.65 0.65 -0.50 3.05 -4.15 8.75 -5.10 7.95 -9.45 10.05 -17.35 8.35 -1.90 -0.40 -2.80 -0.90 -3.80 -2.25 -1.25 -1.65 -2.65 -1.90 -2.05 -0.40 0.15 0.40 -1.10 2.20 -2.95 4.30 -3.95 4.45 -4.50 6.50 -0.85 3.25 0.60 -0.55 1.10 -0.75 1.10 -0.45 0 0.30 -0.20 0.70 -0.50 0.85 -0.65 0.40 -0.65 3.05 0.05 4.30 0.50 1 0.55 1 1.55 0.10 1.55 -1.40 2.35 -3.30 2.70 -6.35 0.25 -1.85 0.55 -2.80 1 -2.80 1 0 0.90 2.80 -0.25 6.55 -0.55 1.75 -1.45 4.95 -2 7.10 -0.60 2.15 -2.05 6.10 -3.25 8.75 -1.25 2.65 -2.50 5.85 -2.80 7.10 -0.90 3.35 -2.30 5.30 -4.70 6.45 -2.95 1.45 -5.15 1.35 -7.85 -0.40z m3.05 -1.55 c0 -0.25 -0.90 -0.95 -2.05 -1.50 -1.40 -0.75 -2.25 -1.65 -2.80 -2.90 -0.75 -1.75 -0.70 -1.85 0.60 -2.90 0.90 -0.75 1.30 -1.45 1.15 -2.25 -0.40 -2.85 -3.60 0.20 -3.50 3.30 0.10 2.65 1.55 5.25 3.30 6.05 1.85 0.80 3.30 0.90 3.30 0.20z m6.65 -0.90 c1.30 -1.15 2.35 -3.70 2.35 -5.70 0 -1.90 -2 -4.75 -2.90 -4.20 -0.95 0.60 -0.70 2.70 0.40 3.30 1.30 0.70 1.30 3.20 0.05 4.45 -0.55 0.55 -1.70 1.35 -2.50 1.80 -0.85 0.40 -1.55 1 -1.55 1.35 0 0.75 2.95 0.10 4.15 -1z"/>
  <path d="M57.20 88.55 c-10.75 -4.20 -18.20 -10.70 -22.75 -19.75 -3.80 -7.60 -6.45 -18.70 -6.45 -27.15 0 -8.90 2.35 -15.70 8.80 -25.65 3.10 -4.75 7.35 -10.10 8.35 -10.45 0.30 -0.10 -0.55 1.70 -1.85 4 -5.45 9.65 -7.50 14.90 -8.25 20.70 -0.50 4.10 -0.20 6.15 1 6.90 0.85 0.50 3.65 -0.65 8.55 -3.45 1.35 -0.75 2.55 -1.20 2.75 -1.05 0.60 0.65 -1.60 3.05 -6.35 6.85 -2.55 2.10 -4.85 4.35 -5.10 5 -1.60 4.20 3.40 19.85 7.45 23.60 l1.30 1.15 -0.35 -1.25 c-0.15 -0.70 -0.65 -2.50 -1.10 -4 -0.40 -1.50 -0.90 -4.80 -1.05 -7.35 -0.30 -4.35 -0.25 -4.70 1.30 -8 2.15 -4.60 6.05 -10.70 6.55 -10.40 0.25 0.15 -0.35 2.15 -1.35 4.40 -3.90 8.95 -4.30 10.55 -4 16.35 0.10 2.90 0.60 6.95 1.10 9 0.85 3.75 0.85 3.75 5.50 8.35 8.60 8.40 15.05 10.25 20.25 5.80 2.40 -2.05 4.25 -5.45 4.70 -8.65 0.90 -5.75 1.40 -6.40 2.35 -2.90 0.70 2.80 0.35 7.65 -0.75 9.95 -1.25 2.60 -4.95 6.10 -8.30 7.90 -3.85 2.05 -7.30 2.10 -12.30 0.10z"/>
  <path d="M129.20 88.25 c-7.45 -4.40 -10.80 -11.40 -8.50 -17.70 0.95 -2.70 1.60 -2.40 1.95 0.90 0.40 3.90 2 8.05 3.75 9.65 3.65 3.50 7 4.20 11.50 2.50 5.15 -1.95 12.30 -8.10 14.30 -12.25 1.65 -3.45 2.45 -9.15 2.20 -15.15 -0.20 -4.70 -0.35 -5.30 -3.05 -11.45 -2.65 -6.20 -3 -7.20 -1.95 -6.55 0.65 0.40 5.90 9.20 6.85 11.40 1.15 2.80 0.95 8.95 -0.45 14.35 -0.65 2.50 -1 4.55 -0.80 4.55 0.55 0 2.25 -2.10 3.70 -4.65 3.45 -6.05 5.80 -17 4.30 -19.90 -0.30 -0.55 -2.65 -2.65 -5.30 -4.75 -4.70 -3.75 -6.65 -5.90 -6 -6.60 0.20 -0.20 1.20 0.15 2.20 0.80 4.15 2.60 8.20 4.25 9 3.75 2.80 -1.75 0.85 -12.55 -3.75 -21.15 -1 -1.80 -2.65 -4.90 -3.75 -6.85 -1.10 -2 -1.75 -3.65 -1.50 -3.65 0.90 0 7.90 9.45 10.80 14.60 5.45 9.50 7.25 18.20 5.85 28.55 -2.85 21.25 -12.55 34.35 -29.95 40.30 -4.75 1.60 -7.80 1.40 -11.40 -0.70z"/>
 </g>
 <g fill="#65a7d6">
  <path d="M77.20 111.55 c-0.60 -0.60 -0.05 -2.15 0.90 -2.50 0.90 -0.30 1.75 -2.25 4.45 -9.85 l3.35 -9.45 1.95 -0.15 c1.20 -0.10 2.20 0.10 2.50 0.50 0.25 0.35 1.65 4.15 3.10 8.40 3.50 10.50 3.45 10.35 4.85 10.70 0.75 0.20 1.20 0.70 1.20 1.25 0 0.85 -0.45 1 -3.25 1.15 -1.80 0.05 -3.50 0.10 -3.75 0 -0.90 -0.30 -0.55 -2.20 0.45 -2.45 0.90 -0.25 0.95 -0.35 0.25 -2.30 -0.40 -1.15 -1 -2.25 -1.35 -2.45 -0.35 -0.20 -2.05 -0.40 -3.85 -0.40 -1.80 0 -3.50 0.20 -3.85 0.40 -0.35 0.20 -0.95 1.30 -1.35 2.45 -0.70 2.05 -0.70 2.05 0.50 2.35 0.95 0.25 1.25 0.60 1.10 1.45 -0.15 1 -0.40 1.10 -3.55 1.10 -1.90 0 -3.50 -0.10 -3.65 -0.20z m13.70 -10.45 c0.20 -0.70 -2.45 -8.10 -2.90 -8.10 -0.40 0 -3 7 -3 8.10 0 0.80 5.60 0.80 5.90 0z"/>
  <path d="M102.95 109.55 c-1.40 -1.40 -2.45 -2.95 -2.45 -3.55 0 -0.90 0.25 -1.05 1.85 -0.90 1.45 0.10 1.95 0.40 2.05 1.15 0.50 2.70 3.80 3.90 6.80 2.50 1.50 -0.70 1.80 -1.10 1.80 -2.45 0 -0.85 -0.20 -1.80 -0.40 -2.10 -0.50 -0.80 -2.95 -1.95 -5.70 -2.70 -2.90 -0.75 -4.75 -2.50 -5.20 -4.80 -0.65 -3.55 1.15 -6.15 4.95 -7.15 2.90 -0.70 5.40 0.05 7.90 2.35 2.45 2.35 2.60 3.60 0.35 3.60 -1.30 0 -1.85 -0.30 -2.50 -1.45 -1.70 -3.05 -7.90 -2.35 -7.90 0.90 0 1.85 0.90 2.75 3.85 3.85 5.55 2 6.45 2.55 7.30 4.35 1.05 2.15 1.05 2.90 0.15 5.10 -1.10 2.55 -3.40 3.75 -7.25 3.75 -3.15 0 -3.20 0 -5.60 -2.45z"/>
 </g>
</svg>